<?xml version="1.0" encoding="utf-8"?>
<!-- Uploaded to: SVG Repo, www.svgrepo.com, Generator: SVG Repo Mixer Tools -->
<svg fill="#000000" version="1.1" id="Layer_1" xmlns="http://www.w3.org/2000/svg" xmlns:xlink="http://www.w3.org/1999/xlink" 
	 width="800px" height="800px" viewBox="0 0 256 253" enable-background="new 0 0 256 253" xml:space="preserve">
<path d="M254,69v-8H2v8c0,13.678,9.625,25.302,22,29.576V233H2v18h252v-18h-22V98.554C244.89,94.609,253.699,83.158,254,69z
	 M214,233h-69v-5h-12v-26.381h30.29l-2-0.041c-0.203-11.48-19.068-41.249-22.202-48.78c0,0,4.152-19.204,4.926-19.204
	c0.977,0,2.588,8.304,2.588,8.304h9.689c0,0-0.792-4.735-2-9.281c-2.29-8.618-5.333-15.999-14.045-15.999h-5.211L133.667,109h-9.333
	l-1.367,7.619h-5.217c-8.508,0-12.048,7.352-14.045,15.999c-1.705,7.382-2,9.281-2,9.281h9.689c0,0,1.773-8.304,2.588-8.304
	c0.977,0,4.763,18.837,4.763,18.837c-3.175,7.49-23.795,37.503-23.999,49.187H125V228h-12v5H42V98.594
	c13.402-3.628,23.29-15.699,23.29-30.248c0,6.478,6.755,31.47,31.727,31.47c21.689,0,31.202-19.615,31.202-31.47
	c0,11.052,7.41,31.447,31.464,31.447c21.733,0,31.363-20.999,31.363-31.447c0,14.426,9.726,26.416,22.954,30.154V233z M254,54H2
	l32-32V2h189v20h-0.168L254,54z"/>
</svg>