<?xml version="1.0" ?><svg data-name="Layer 1" id="Layer_1" viewBox="0 0 64 64" xmlns="http://www.w3.org/2000/svg"><path d="M59,31.1843V30a2.9964,2.9964,0,0,0-2.2332-2.8883c5.01-4.7863.9891-12.87-5.8772-12.1117C55.35,10.7907,52.2088,2.9192,46,3L36,3H18c-6.2838-.0822-9.3958,7.966-4.7617,12.1163C6.406,13.8608,2.17,22.4618,7.2332,27.1117A2.9964,2.9964,0,0,0,5,30v1.1843A2.995,2.995,0,0,0,3,34v8a2.9769,2.9769,0,0,0,.78,2A2.9769,2.9769,0,0,0,3,46v8a2.995,2.995,0,0,0,2,2.8157V58a3.0033,3.0033,0,0,0,3,3H56a3.0033,3.0033,0,0,0,3-3V56.8157A2.995,2.995,0,0,0,61,54V46a2.9769,2.9769,0,0,0-.78-2A2.9769,2.9769,0,0,0,61,42V34A2.995,2.995,0,0,0,59,31.1843ZM6,55a1.0013,1.0013,0,0,1-1-1V46a1.0013,1.0013,0,0,1,1-1h9V55ZM17,33H58a1.0013,1.0013,0,0,1,1,1v8a1.0013,1.0013,0,0,1-1,1H17ZM57,22a5.0059,5.0059,0,0,1-5,5H46.89a7.0548,7.0548,0,0,0,0-10H52A5.0059,5.0059,0,0,1,57,22ZM28.8945,27a7.0422,7.0422,0,0,0,0-10H34a5,5,0,0,1,0,10ZM19,22c.21-6.6077,9.7907-6.6062,10,0C28.79,28.6077,19.2093,28.6062,19,22Zm.11,5H16.89A7.04,7.04,0,0,0,18,25.587,7.04,7.04,0,0,0,19.11,27ZM41,22a6.9808,6.9808,0,0,0-2.1055-5H42a5,5,0,0,1,0,10H38.8945A6.9808,6.9808,0,0,0,41,22ZM46,5c6.6083.2111,6.606,9.79,0,10H40.89a7.0548,7.0548,0,0,0,0-10ZM36,5c6.6087.2113,6.6056,9.7905,0,10-.7041-.0069-2.419.005-3.1054,0a7.0654,7.0654,0,0,0,0-10ZM22.8945,5H28a5,5,0,0,1,0,10H22.8945A7.0422,7.0422,0,0,0,22.8945,5ZM13,10c.21-6.6077,9.7907-6.6062,10,0C22.79,16.6077,13.2093,16.6062,13,10Zm5,7h1.11A7.04,7.04,0,0,0,18,18.413a7.0363,7.0363,0,0,0-1.2383-1.5293A6.9909,6.9909,0,0,0,18,17ZM7,22c.21-6.6077,9.7907-6.6062,10,0C16.79,28.6077,7.2093,28.6062,7,22Zm0,8a1.0013,1.0013,0,0,1,1-1H56a1.0013,1.0013,0,0,1,1,1v1H7ZM5,34a1.0013,1.0013,0,0,1,1-1h9V43H6a1.0013,1.0013,0,0,1-1-1ZM57,58a1.0013,1.0013,0,0,1-1,1H8a1.0013,1.0013,0,0,1-1-1V57H57Zm2-4a1.0013,1.0013,0,0,1-1,1H17V45H58a1.0013,1.0013,0,0,1,1,1Z"/><path d="M12,37a1,1,0,0,0,0-2A1,1,0,0,0,12,37Z"/><path d="M12,41a1,1,0,0,0,0-2A1,1,0,0,0,12,41Z"/><path d="M12,49a1,1,0,0,0,0-2A1,1,0,0,0,12,49Z"/><path d="M12,51a1,1,0,0,0,0,2A1,1,0,0,0,12,51Z"/><path d="M12,25a3,3,0,0,0,0-6A3,3,0,0,0,12,25Zm0-4a1,1,0,0,1,0,2A1,1,0,0,1,12,21Z"/><path d="M24,19a3,3,0,0,0,0,6A3,3,0,0,0,24,19Zm0,4a1,1,0,0,1,0-2A1,1,0,0,1,24,23Z"/><path d="M18,13a3,3,0,0,0,0-6A3,3,0,0,0,18,13Zm0-4a1,1,0,0,1,0,2A1,1,0,0,1,18,9Z"/></svg>